# xmcd CD database file
#
# Track frame offsets:
#	150
#	37273
#	53233
#	69961
#	101893
#	117298
#
# Disc length: 1849 seconds
#
# Revision: 0
# Processed by: cddbd v1.5.2PL0 Copyright (c) Steve Scherf et al.
# Submitted via: CDex 1.70beta2
#
DISCID=53073706
DTITLE=マイルス・デイヴィス２ - ブルーノート・ベスト・ジャズ・コレクション 21
DYEAR=2012
DGENRE=Jazz
TTITLE0=サムシン・エルス
TTITLE1=アイ・ウェイテッド・フォー・ユー
TTITLE2=テイク・オフ
TTITLE3=ラヴ・フォー・セール
TTITLE4=エニグマ
TTITLE5=ウェアード
EXTD=YEAR: 2012
EXTT0=
EXTT1=
EXTT2=
EXTT3=
EXTT4=
EXTT5=
PLAYORDER=
